<?xml version="1.0" encoding="UTF-8" standalone="no"?>
<!-- Created with Inkscape (http://www.inkscape.org/) -->

<svg
   width="512"
   height="512"
   viewBox="0 0 135.46667 135.46667"
   version="1.1"
   id="svg5"
   inkscape:version="1.2.1 (9c6d41e410, 2022-07-14)"
   sodipodi:docname="icon.svg"
   xmlns:inkscape="http://www.inkscape.org/namespaces/inkscape"
   xmlns:sodipodi="http://sodipodi.sourceforge.net/DTD/sodipodi-0.dtd"
   xmlns="http://www.w3.org/2000/svg"
   xmlns:svg="http://www.w3.org/2000/svg">
  <sodipodi:namedview
     id="namedview7"
     pagecolor="#505050"
     bordercolor="#eeeeee"
     borderopacity="1"
     inkscape:showpageshadow="0"
     inkscape:pageopacity="0"
     inkscape:pagecheckerboard="0"
     inkscape:deskcolor="#505050"
     inkscape:document-units="mm"
     showgrid="false"
     inkscape:zoom="1"
     inkscape:cx="226.5"
     inkscape:cy="312.5"
     inkscape:window-width="1920"
     inkscape:window-height="1121"
     inkscape:window-x="290"
     inkscape:window-y="1791"
     inkscape:window-maximized="1"
     inkscape:current-layer="layer1" />
  <defs
     id="defs2" />
  <g
     inkscape:label="Ebene 1"
     inkscape:groupmode="layer"
     id="layer1">
    <path
       id="path238-7"
       style="fill:#6e875f;stroke:#ff0000;stroke-width:0;stroke-linecap:square;stroke-linejoin:round;fill-opacity:1"
       d="M 128.84123,67.73333 H 6.6254234 c 0,33.74897 27.3589426,61.1079 61.1079026,61.1079 33.748964,0 61.107904,-27.35893 61.107904,-61.1079 z"
       sodipodi:nodetypes="ccsc" />
    <path
       id="path238"
       style="opacity:1;fill:#657ba5;stroke:#ff0000;stroke-width:0;stroke-linecap:square;stroke-linejoin:round;fill-opacity:1"
       d="M 128.84123,67.73333 H 6.6254272 C 6.6254273,33.984367 33.984367,6.6254273 67.73333,6.6254272 c 33.74896,1.7e-6 61.1079,27.3589408 61.1079,61.1079028 z"
       sodipodi:nodetypes="ccsc" />
    <path
       style="opacity:1;fill:#676767;fill-opacity:0.407514;stroke:#ff0000;stroke-width:0;stroke-linecap:square;stroke-linejoin:round;font-variation-settings:normal;vector-effect:none;stroke-miterlimit:4;stroke-dasharray:none;stroke-dashoffset:0;stroke-opacity:1;-inkscape-stroke:none;stop-color:#000000;stop-opacity:1"
       d="m 33.585541,46.406249 c 3.53668,-1.644104 2.322277,-16.027228 8.733909,-19.02225 4.037272,-1.885904 10.270248,-11.317216 13.682668,-12.754232 5.270962,-2.219673 5.544205,10.560357 9.202595,14.787076 6.11854,7.069051 7.952568,7.854861 12.82071,7.23623 7.917977,-1.006197 14.747896,6.305262 21.708686,3.932732 4.146631,-1.413345 5.685321,-9.237934 8.809321,-9.753179 2.11672,-0.349114 9.34484,7.374474 10.85434,11.168962 0.3417,0.858956 4.91492,2.645997 4.91492,2.645997 4.95524,12.191472 4.52854,23.085745 4.52854,23.085745 H 6.6254272 c 0,0 -0.692533,-14.312719 7.3576538,-29.070374 0,0 4.185249,-1.649913 12.759504,1.922849 2.595126,1.08135 3.375741,7.432255 6.842956,5.820444 z"
       id="path18385"
       sodipodi:nodetypes="ssssssssccccss" />
    <path
       style="opacity:1;fill:#3d4a42;fill-opacity:1;stroke:#ff0000;stroke-width:0;stroke-linecap:square;stroke-linejoin:round"
       d="m 31.590593,78.809635 3.62703,-0.05666 4.604322,2.300648 4.126346,-0.05899 4.105008,2.43123 -4.504997,-4.449379 -4.783084,0.611786 -1.851933,-2.431868 -5.322692,1.653231"
       id="path56762" />
    <path
       style="opacity:1;fill:#3d4a42;fill-opacity:1;stroke:#ff0000;stroke-width:0;stroke-linecap:square;stroke-linejoin:round"
       d="m 50.83416,91.740642 -5.951046,-0.139041 -2.447157,0.973302 -3.364844,-1.974414 -4.365953,1.557285 -3.392652,-2.753056 h -4.199101 l 0.05561,-2.892097 -3.022041,-1.290299 5.387845,0.03933 2.516947,3.696769 5.540142,-1.809057 3.859091,4.286676 5.934892,-1.878699 z"
       id="path65018"
       sodipodi:nodetypes="ccccccccccccccc" />
    <path
       style="opacity:1;fill:#3d4a42;fill-opacity:1;stroke:#ff0000;stroke-width:0;stroke-linecap:square;stroke-linejoin:round"
       d="m 17.264062,93.761718 4.531768,2.588945 0.888671,4.022407 4.911077,-0.467722 1.660412,4.009752 4.723989,-1.78808 3.788545,2.73618 3.274052,-2.82972 3.975635,1.88162 2.367682,-2.81706 5.233117,0.96498 L 41.13612,95.672467 19.691082,93.2637 Z"
       id="path66577" />
    <path
       style="opacity:1;fill:#3d4a42;fill-opacity:1;stroke:#ff0000;stroke-width:0;stroke-linecap:square;stroke-linejoin:round"
       d="m 59.026475,114.49826 -2.934809,5.9533 -5.423958,-0.59531 -4.630209,4.13411 -2.248958,-1.38906 -3.100173,0.50285 -12.756596,-6.75393 -5.541292,-0.37846 -3.693763,-4.7624 -4.845935,-0.56786 -0.953813,-7.2394 z"
       id="path70321"
       sodipodi:nodetypes="cccccccccccc" />
    <path
       style="opacity:1;fill:#564d48;fill-opacity:1;stroke:#ff0000;stroke-width:0;stroke-linecap:square;stroke-linejoin:round"
       d="m 39.726126,123.40965 -1.350227,-17.73689 3.448267,-26.362571 5.561727,-14.238014 -11.047439,16.767998 -3.618115,15.219678 -4.922399,16.926479 -2.60113,4.35286 4.032996,5.85888 z"
       id="path46131"
       sodipodi:nodetypes="cccccccccc" />
    <path
       style="opacity:1;fill:#48564c;fill-opacity:1;stroke:#ff0000;stroke-width:0;stroke-linecap:square;stroke-linejoin:round"
       d="m 47.385893,65.072175 0.667406,18.35369 -4.504997,-4.449379 -4.783084,0.611788 -1.851933,-2.43187 -5.322692,1.653231 z"
       id="path56024" />
    <path
       style="opacity:1;fill:#48564c;fill-opacity:1;stroke:#ff0000;stroke-width:0;stroke-linecap:square;stroke-linejoin:round"
       d="m 41.634809,80.757841 7.336173,6.310953 c 0,0 1.946603,4.783084 1.863178,4.671848 -0.08343,-0.111233 -4.742529,-1.641729 -4.742529,-1.641729 l -4.640625,1.33713 -3.859091,-4.286678 -5.540142,1.809057 -2.516947,-3.696769 -5.387845,-0.03933 4.915916,-4.208026 8.456887,-1.111001 2.302161,1.150323 1.812864,-0.295778"
       id="path63268"
       sodipodi:nodetypes="ccscccccccccc" />
    <path
       style="opacity:1;fill:#48564c;fill-opacity:1;stroke:#ff0000;stroke-width:0;stroke-linecap:square;stroke-linejoin:round"
       d="m 34.24629,90.640899 -7.688738,1.500246 -5.754688,-0.398592 -3.538802,2.019165 2.282032,0.23151 2.05052,3.935677 5.027084,-0.661458 3.241145,4.795573 6.019271,-1.68672 5.159375,3.5388 1.885156,-5.490101 3.042709,1.620571 1.653645,-0.562238 4.994011,2.579688 0.23151,-4.497917 -6.548437,-3.836458 -6.20205,-1.237171 -2.992221,1.071444 z"
       id="path66563" />
    <path
       style="opacity:1;fill:#48564c;fill-opacity:1;stroke:#ff0000;stroke-width:0;stroke-linecap:square;stroke-linejoin:round"
       d="m 38.69015,103.27025 5.977268,4.867 9.401207,1.96443 4.95785,4.39658 -4.72399,6.82874 -3.835318,-3.27405 -7.202914,3.08696 -5.672338,-7.01582 -5.902706,2.95493 -3.666144,-3.86682 -2.709205,-0.12681 -1.472018,-4.00875 -7.195744,-0.46836 -3.749129,-5.20618 12.687406,-1.43878 6.033608,1.05774 1.964433,2.21631 3.133736,-1.32227 1.292852,0.74025 z"
       id="path67318"
       sodipodi:nodetypes="cccccccccccccccccccc" />
  </g>
</svg>
